<mxfile host="multicloud-diagrams" agent="PIP package multicloud-diagrams. Generate resources in draw.io compatible format for Cloud infrastructure. Copyrights @ Roman Tsypuk 2023. MIT license." type="MultiCloud">
	<diagram id="diagram_1" name="AWS components">
		<mxGraphModel dx="1015" dy="661" grid="1" gridSize="10" guides="1" tooltips="1" connect="1" arrows="1" fold="1" page="1" pageScale="1" pageWidth="850" pageHeight="1100" math="0" shadow="1">
			<root>
				<mxCell id="0"/>
				<mxCell id="1" parent="0"/>
				<mxCell id="vertex:app_runner:arn:aws:app_runner:us-west-1:123456789012:service/app_runner/123" value="&lt;b&gt;Name&lt;/b&gt;: App Runner&lt;BR&gt;&lt;b&gt;ARN&lt;/b&gt;: arn:aws:app_runner:us-west-1:123456789012:service/app_runner/123&lt;BR&gt;-----------&lt;BR&gt;&lt;b&gt;serviceName&lt;/b&gt;: app_runner&lt;BR&gt;&lt;b&gt;Cpu&lt;/b&gt;: 2&lt;BR&gt;&lt;b&gt;Memory&lt;/b&gt;: 1024&lt;BR&gt;&lt;b&gt;Protocol&lt;/b&gt;: TCP | HTTP&lt;BR&gt;&lt;b&gt;Path&lt;/b&gt;: /root/domain&lt;BR&gt;&lt;b&gt;Interval&lt;/b&gt;: 123&lt;BR&gt;&lt;b&gt;Timeout&lt;/b&gt;: 123&lt;BR&gt;&lt;b&gt;HealthyThreshold&lt;/b&gt;: 123&lt;BR&gt;&lt;b&gt;UnhealthyThreshold&lt;/b&gt;: 123&lt;BR&gt;&lt;b&gt;Type&lt;/b&gt;: BRANCH&lt;BR&gt;&lt;b&gt;Runtime&lt;/b&gt;: PYTHON_3 | NODEJS_18&lt;BR&gt;&lt;b&gt;BuildCommand&lt;/b&gt;: poetry install" style="sketch=0;outlineConnect=0;fontColor=#232F3E;gradientColor=#F78E04;gradientDirection=north;fillColor=#D05C17;strokeColor=#ffffff;dashed=0;verticalLabelPosition=bottom;verticalAlign=top;align=left;html=1;fontSize=12;fontStyle=0;aspect=fixed;shape=mxgraph.aws4.resourceIcon;resIcon=mxgraph.aws4.app_runner;" parent="1" vertex="1">
					<mxGeometry width="78" height="78" as="geometry"/>
				</mxCell>
			</root>
		</mxGraphModel>
	</diagram>
</mxfile>